<svg width="139" height="37" xmlns="http://www.w3.org/2000/svg" xmlns:xlink="http://www.w3.org/1999/xlink"><defs><path id="a" d="M0 0h21.741v30H.001z"/></defs><g fill="none" fill-rule="evenodd"><g><mask id="b" fill="#fff"><use xlink:href="#a"/></mask><path d="M14.732 17.225c-1.55 0-2.918-.712-3.845-1.81-.925 1.098-2.292 1.81-3.843 1.81a5.045 5.045 0 0 1-5.046-5.049A5.046 5.046 0 0 1 7.044 7.13c1.551 0 2.918.712 3.843 1.812.927-1.1 2.295-1.812 3.845-1.812a5.049 5.049 0 0 1 0 10.097zm-3.822 2.858l-2.603-2.495a4.318 4.318 0 0 0 2.582-1.222 4.303 4.303 0 0 0 2.625 1.225l-2.604 2.492zm10.237-9.852l.137-9.836V.37A.37.37 0 0 0 20.92 0h-.008c-.007 0-.016 0-.024.002a.38.38 0 0 0-.196.07c-.015.016-.036.032-.053.052-.001.003-.003.006-.006.007-2.734 3.165-4.57 3.393-7.278 3.393-.364 0-.74-.004-1.137-.012a49.88 49.88 0 0 0-3.498.042c-.54.018-1.053.04-1.528.04-2.313 0-3.957-.491-6.509-3.175A.365.365 0 0 0 .272.334.369.369 0 0 0 .05.688L.4 10.553a3.497 3.497 0 0 0 .004 3.254v4.15c0 3.171 1.536 6.204 4.32 8.537C7.388 28.723 10.883 30 14.31 30h6.468a.367.367 0 0 0 .368-.37V14.127a3.45 3.45 0 0 0 .595-1.95c0-.694-.202-1.363-.594-1.945z" fill="#60C9CF" mask="url(#b)"/><path d="M10.91 20.083l-2.603-2.495a4.318 4.318 0 0 0 2.582-1.222 4.303 4.303 0 0 0 2.625 1.225l-2.604 2.492z" fill="#EFC73D" mask="url(#b)"/></g><path d="M7.044 10.034c-.297 0-.58.062-.838.17a.738.738 0 0 1 .297.582.756.756 0 0 1-.755.753.743.743 0 0 1-.607-.333c-.147.294-.243.62-.243.97 0 1.185.963 2.142 2.146 2.142a2.14 2.14 0 0 0 2.144-2.142 2.14 2.14 0 0 0-2.144-2.142M14.732 10.034c-.335 0-.645.083-.926.22a.752.752 0 0 1-.533 1.286.736.736 0 0 1-.51-.211c-.116.26-.178.546-.178.847a2.144 2.144 0 0 0 4.289 0 2.141 2.141 0 0 0-2.142-2.142" fill="#000"/><path d="M32.058 30V7.976h5.238V30h-5.238zm18.346-15.454c3.164 0 5.434 1.573 5.434 6.357V30h-4.844v-7.902c0-2.497-.802-3.223-2.421-3.223-1.65 0-2.786 1.15-2.786 3.511V30h-4.843V14.833h4.843v1.832h.03c1.197-1.393 2.831-2.12 4.587-2.12zM59.395 30V18.784h-1.483v-3.951h1.483v-2.361c0-3.754 1.953-5.586 4.995-5.586 2.013 0 3.557.787 4.087 1.166l-.893 3.481c-.666-.333-1.453-.53-1.922-.53-.833 0-1.408.41-1.408 1.65v2.18h2.891v3.95h-2.89V30h-4.86zm17.544.303c-4.874 0-8.189-3.27-8.189-7.872 0-4.6 3.315-7.886 8.189-7.886 4.813 0 8.174 3.224 8.174 7.886 0 4.648-3.36 7.872-8.174 7.872zm0-4.315c1.846 0 3.284-1.483 3.284-3.557 0-2.104-1.392-3.557-3.284-3.557-1.953 0-3.3 1.499-3.3 3.557 0 2.029 1.392 3.557 3.3 3.557zm27.533-11.155h4.814L104.154 30h-4.041l-2.346-8.446h-.046L95.421 30h-4.042l-5.131-15.167h4.829l2.482 8.129h.06l2.24-8.129h3.8l2.255 8.144h.06l2.498-8.144zm9.28-1.801c-1.681 0-3.028-1.15-3.028-2.83 0-1.666 1.347-2.816 3.027-2.816 1.68 0 3.028 1.15 3.028 2.815 0 1.68-1.348 2.83-3.028 2.83zM111.328 30V14.833h4.83V30h-4.83zm10.566-17.09c-1.68 0-3.027-1.15-3.027-2.83 0-1.665 1.347-2.815 3.027-2.815 1.68 0 3.027 1.15 3.027 2.815 0 1.68-1.347 2.83-3.027 2.83zm-2.316 23.508c-1.725 0-2.664-.272-3.466-.56l.802-3.845c.409.182.878.288 1.302.288.984 0 1.286-.681 1.286-1.953V14.833h4.844v15.924c0 3.784-1.726 5.661-4.768 5.661zm12.972-6.115c-2.376 0-4.51-.742-6.236-2.255l2.3-3.255c1.272 1.196 2.559 1.726 3.981 1.726.878 0 1.363-.303 1.363-.848 0-.394-.47-.711-2.331-1.287-2.528-.787-4.738-2.058-4.738-5.055 0-2.952 2.497-4.784 5.691-4.784 2.24 0 3.95.621 5.707 1.923l-2.301 3.466c-1.075-1.06-2.392-1.59-3.42-1.59-.425 0-1.075.167-1.075.773 0 .378.56.756 1.982 1.271 3.346 1.211 5.162 1.998 5.177 5.01 0 2.816-1.968 4.905-6.1 4.905z" fill="#60C9CF" fill-rule="nonzero"/></g></svg>